<svg width="51" height="51" viewBox="0 0 51 51" fill="none" xmlns="http://www.w3.org/2000/svg">
<path d="M2.41667 0H0V2.41667H2.41667V0Z" fill="black"/>
<path d="M4.83333 0H2.41667V2.41667H4.83333V0Z" fill="black"/>
<path d="M7.25 0H4.83333V2.41667H7.25V0Z" fill="black"/>
<path d="M9.66667 0H7.25V2.41667H9.66667V0Z" fill="black"/>
<path d="M12.0833 0H9.66667V2.41667H12.0833V0Z" fill="black"/>
<path d="M14.5 0H12.0833V2.41667H14.5V0Z" fill="black"/>
<path d="M16.9167 0H14.5V2.41667H16.9167V0Z" fill="black"/>
<path d="M21.75 0H19.3333V2.41667H21.75V0Z" fill="black"/>
<path d="M36.25 0H33.8333V2.41667H36.25V0Z" fill="black"/>
<path d="M38.6667 0H36.25V2.41667H38.6667V0Z" fill="black"/>
<path d="M41.0833 0H38.6667V2.41667H41.0833V0Z" fill="black"/>
<path d="M43.5 0H41.0833V2.41667H43.5V0Z" fill="black"/>
<path d="M45.9167 0H43.5V2.41667H45.9167V0Z" fill="black"/>
<path d="M48.3333 0H45.9167V2.41667H48.3333V0Z" fill="black"/>
<path d="M50.75 0H48.3333V2.41667H50.75V0Z" fill="black"/>
<path d="M2.41667 2.41667H0V4.83333H2.41667V2.41667Z" fill="black"/>
<path d="M16.9167 2.41667H14.5V4.83333H16.9167V2.41667Z" fill="black"/>
<path d="M24.1667 2.41667H21.75L21.75 4.83333H24.1667V2.41667Z" fill="black"/>
<path d="M26.5833 2.41667H24.1667V4.83333H26.5833V2.41667Z" fill="black"/>
<path d="M29 2.41667H26.5833V4.83333H29V2.41667Z" fill="black"/>
<path d="M31.4167 2.41667H29V4.83333H31.4167V2.41667Z" fill="black"/>
<path d="M36.25 2.41667H33.8333V4.83333H36.25V2.41667Z" fill="black"/>
<path d="M50.75 2.41667H48.3333V4.83333H50.75V2.41667Z" fill="black"/>
<path d="M2.41667 4.83333H0V7.25H2.41667V4.83333Z" fill="black"/>
<path d="M7.25 4.83333H4.83333V7.25H7.25V4.83333Z" fill="black"/>
<path d="M9.66667 4.83333H7.25V7.25H9.66667V4.83333Z" fill="black"/>
<path d="M12.0833 4.83333H9.66667V7.25H12.0833V4.83333Z" fill="black"/>
<path d="M16.9167 4.83333H14.5V7.25H16.9167V4.83333Z" fill="black"/>
<path d="M24.1667 4.83333H21.75V7.25H24.1667V4.83333Z" fill="black"/>
<path d="M29 4.83333H26.5833L26.5833 7.25H29V4.83333Z" fill="black"/>
<path d="M31.4167 4.83333H29V7.25H31.4167V4.83333Z" fill="black"/>
<path d="M36.25 4.83333H33.8333V7.25H36.25V4.83333Z" fill="black"/>
<path d="M41.0833 4.83333H38.6667V7.25H41.0833V4.83333Z" fill="black"/>
<path d="M43.5 4.83333H41.0833V7.25H43.5V4.83333Z" fill="black"/>
<path d="M45.9167 4.83333H43.5V7.25H45.9167V4.83333Z" fill="black"/>
<path d="M50.75 4.83333H48.3333V7.25H50.75V4.83333Z" fill="black"/>
<path d="M2.41667 7.25H0V9.66667H2.41667V7.25Z" fill="black"/>
<path d="M7.25 7.25H4.83333V9.66667H7.25V7.25Z" fill="black"/>
<path d="M9.66667 7.25H7.25V9.66667H9.66667V7.25Z" fill="black"/>
<path d="M12.0833 7.25H9.66667V9.66667H12.0833V7.25Z" fill="black"/>
<path d="M16.9167 7.25H14.5V9.66667H16.9167V7.25Z" fill="black"/>
<path d="M24.1667 7.25H21.75V9.66667H24.1667V7.25Z" fill="black"/>
<path d="M26.5833 7.25H24.1667V9.66667H26.5833L26.5833 7.25Z" fill="black"/>
<path d="M31.4167 7.25H29V9.66667H31.4167V7.25Z" fill="black"/>
<path d="M36.25 7.25H33.8333V9.66667H36.25V7.25Z" fill="black"/>
<path d="M41.0833 7.25H38.6667V9.66667H41.0833V7.25Z" fill="black"/>
<path d="M43.5 7.25H41.0833V9.66667H43.5V7.25Z" fill="black"/>
<path d="M45.9167 7.25H43.5V9.66667H45.9167V7.25Z" fill="black"/>
<path d="M50.75 7.25H48.3333V9.66667H50.75V7.25Z" fill="black"/>
<path d="M2.41667 9.66667H0V12.0833H2.41667V9.66667Z" fill="black"/>
<path d="M7.25 9.66667H4.83333V12.0833H7.25V9.66667Z" fill="black"/>
<path d="M9.66667 9.66667H7.25V12.0833H9.66667V9.66667Z" fill="black"/>
<path d="M12.0833 9.66667H9.66667V12.0833H12.0833V9.66667Z" fill="black"/>
<path d="M16.9167 9.66667H14.5V12.0833H16.9167V9.66667Z" fill="black"/>
<path d="M21.75 9.66667H19.3333V12.0833H21.75L21.75 9.66667Z" fill="black"/>
<path d="M26.5833 9.66667H24.1667L24.1667 12.0833H26.5833V9.66667Z" fill="black"/>
<path d="M29 9.66667H26.5833V12.0833H29V9.66667Z" fill="black"/>
<path d="M31.4167 9.66667H29V12.0833H31.4167V9.66667Z" fill="black"/>
<path d="M36.25 9.66667H33.8333V12.0833H36.25V9.66667Z" fill="black"/>
<path d="M41.0833 9.66667H38.6667V12.0833H41.0833V9.66667Z" fill="black"/>
<path d="M43.5 9.66667H41.0833V12.0833H43.5V9.66667Z" fill="black"/>
<path d="M45.9167 9.66667H43.5V12.0833H45.9167V9.66667Z" fill="black"/>
<path d="M50.75 9.66667H48.3333V12.0833H50.75V9.66667Z" fill="black"/>
<path d="M2.41667 12.0833H0V14.5H2.41667V12.0833Z" fill="black"/>
<path d="M16.9167 12.0833H14.5V14.5H16.9167V12.0833Z" fill="black"/>
<path d="M24.1667 12.0833H21.75L21.75 14.5H24.1667L24.1667 12.0833Z" fill="black"/>
<path d="M26.5833 12.0833H24.1667L24.1667 14.5H26.5833V12.0833Z" fill="black"/>
<path d="M29 12.0833H26.5833V14.5H29V12.0833Z" fill="black"/>
<path d="M31.4167 12.0833H29V14.5H31.4167V12.0833Z" fill="black"/>
<path d="M36.25 12.0833H33.8333V14.5H36.25V12.0833Z" fill="black"/>
<path d="M50.75 12.0833H48.3333V14.5H50.75V12.0833Z" fill="black"/>
<path d="M2.41667 14.5H0V16.9167H2.41667V14.5Z" fill="black"/>
<path d="M4.83333 14.5H2.41667V16.9167H4.83333V14.5Z" fill="black"/>
<path d="M7.25 14.5H4.83333V16.9167H7.25V14.5Z" fill="black"/>
<path d="M9.66667 14.5H7.25V16.9167H9.66667V14.5Z" fill="black"/>
<path d="M12.0833 14.5H9.66667V16.9167H12.0833V14.5Z" fill="black"/>
<path d="M14.5 14.5H12.0833V16.9167H14.5V14.5Z" fill="black"/>
<path d="M16.9167 14.5H14.5V16.9167H16.9167V14.5Z" fill="black"/>
<path d="M21.75 14.5H19.3333V16.9167H21.75L21.75 14.5Z" fill="black"/>
<path d="M26.5833 14.5H24.1667L24.1667 16.9167H26.5833V14.5Z" fill="black"/>
<path d="M31.4167 14.5H29V16.9167H31.4167V14.5Z" fill="black"/>
<path d="M36.25 14.5H33.8333V16.9167H36.25V14.5Z" fill="black"/>
<path d="M38.6667 14.5H36.25V16.9167H38.6667V14.5Z" fill="black"/>
<path d="M41.0833 14.5H38.6667V16.9167H41.0833V14.5Z" fill="black"/>
<path d="M43.5 14.5H41.0833V16.9167H43.5V14.5Z" fill="black"/>
<path d="M45.9167 14.5H43.5V16.9167H45.9167V14.5Z" fill="black"/>
<path d="M48.3333 14.5H45.9167V16.9167H48.3333V14.5Z" fill="black"/>
<path d="M50.75 14.5H48.3333V16.9167H50.75V14.5Z" fill="black"/>
<path d="M21.75 16.9167H19.3333V19.3333H21.75V16.9167Z" fill="black"/>
<path d="M31.4167 16.9167H29V19.3333H31.4167V16.9167Z" fill="black"/>
<path d="M2.41667 19.3333H0V21.75H2.41667V19.3333Z" fill="black"/>
<path d="M9.66667 19.3333H7.25V21.75H9.66667V19.3333Z" fill="black"/>
<path d="M12.0833 19.3333H9.66667V21.75H12.0833V19.3333Z" fill="black"/>
<path d="M14.5 19.3333H12.0833V21.75H14.5V19.3333Z" fill="black"/>
<path d="M16.9167 19.3333H14.5V21.75H16.9167V19.3333Z" fill="black"/>
<path d="M19.3333 19.3333L16.9167 19.3333V21.75H19.3333L19.3333 19.3333Z" fill="black"/>
<path d="M21.75 19.3333H19.3333L19.3333 21.75H21.75V19.3333Z" fill="black"/>
<path d="M24.1667 19.3333L21.75 19.3333V21.75H24.1667V19.3333Z" fill="black"/>
<path d="M26.5833 19.3333H24.1667V21.75H26.5833V19.3333Z" fill="black"/>
<path d="M29 19.3333L26.5833 19.3333V21.75H29V19.3333Z" fill="black"/>
<path d="M33.8333 19.3333L31.4167 19.3333V21.75H33.8333V19.3333Z" fill="black"/>
<path d="M36.25 19.3333H33.8333V21.75H36.25V19.3333Z" fill="black"/>
<path d="M41.0833 19.3333H38.6667V21.75H41.0833V19.3333Z" fill="black"/>
<path d="M50.75 19.3333H48.3333V21.75H50.75V19.3333Z" fill="black"/>
<path d="M2.41667 21.75H0V24.1667H2.41667V21.75Z" fill="black"/>
<path d="M9.66667 21.75H7.25V24.1667H9.66667V21.75Z" fill="black"/>
<path d="M21.75 21.75H19.3333L19.3333 24.1667H21.75V21.75Z" fill="black"/>
<path d="M24.1667 21.75H21.75V24.1667H24.1667V21.75Z" fill="black"/>
<path d="M31.4167 21.75H29V24.1667H31.4167V21.75Z" fill="black"/>
<path d="M33.8333 21.75H31.4167V24.1667H33.8333V21.75Z" fill="black"/>
<path d="M36.25 21.75H33.8333V24.1667H36.25V21.75Z" fill="black"/>
<path d="M41.0833 21.75H38.6667V24.1667H41.0833V21.75Z" fill="black"/>
<path d="M43.5 21.75L41.0833 21.75V24.1667H43.5V21.75Z" fill="black"/>
<path d="M45.9167 21.75H43.5V24.1667H45.9167V21.75Z" fill="black"/>
<path d="M2.41667 24.1667H0V26.5833H2.41667V24.1667Z" fill="black"/>
<path d="M4.83333 24.1667L2.41667 24.1667V26.5833H4.83333V24.1667Z" fill="black"/>
<path d="M16.9167 24.1667H14.5V26.5833H16.9167V24.1667Z" fill="black"/>
<path d="M24.1667 24.1667H21.75L21.75 26.5833H24.1667V24.1667Z" fill="black"/>
<path d="M29 24.1667L26.5833 24.1667V26.5833H29V24.1667Z" fill="black"/>
<path d="M33.8333 24.1667H31.4167V26.5833H33.8333V24.1667Z" fill="black"/>
<path d="M36.25 24.1667H33.8333V26.5833H36.25V24.1667Z" fill="black"/>
<path d="M38.6667 24.1667H36.25V26.5833H38.6667V24.1667Z" fill="black"/>
<path d="M45.9167 24.1667H43.5V26.5833H45.9167V24.1667Z" fill="black"/>
<path d="M48.3333 24.1667L45.9167 24.1667V26.5833H48.3333V24.1667Z" fill="black"/>
<path d="M50.75 24.1667H48.3333V26.5833H50.75V24.1667Z" fill="black"/>
<path d="M2.41667 26.5833H0V29H2.41667V26.5833Z" fill="black"/>
<path d="M4.83333 26.5833H2.41667V29H4.83333V26.5833Z" fill="black"/>
<path d="M14.5 26.5833L12.0833 26.5833V29H14.5V26.5833Z" fill="black"/>
<path d="M19.3333 26.5833L16.9167 26.5833V29H19.3333V26.5833Z" fill="black"/>
<path d="M21.75 26.5833L19.3333 26.5833V29H21.75L21.75 26.5833Z" fill="black"/>
<path d="M24.1667 26.5833H21.75L21.75 29H24.1667V26.5833Z" fill="black"/>
<path d="M26.5833 26.5833H24.1667V29H26.5833L26.5833 26.5833Z" fill="black"/>
<path d="M38.6667 26.5833H36.25V29H38.6667V26.5833Z" fill="black"/>
<path d="M41.0833 26.5833L38.6667 26.5833V29H41.0833V26.5833Z" fill="black"/>
<path d="M45.9167 26.5833H43.5V29H45.9167V26.5833Z" fill="black"/>
<path d="M48.3333 26.5833H45.9167V29H48.3333V26.5833Z" fill="black"/>
<path d="M50.75 26.5833H48.3333V29H50.75V26.5833Z" fill="black"/>
<path d="M4.83333 29H2.41667V31.4167H4.83333V29Z" fill="black"/>
<path d="M9.66667 29H7.25V31.4167H9.66667V29Z" fill="black"/>
<path d="M12.0833 29H9.66667V31.4167H12.0833V29Z" fill="black"/>
<path d="M16.9167 29H14.5V31.4167H16.9167V29Z" fill="black"/>
<path d="M19.3333 29H16.9167V31.4167H19.3333V29Z" fill="black"/>
<path d="M24.1667 29H21.75L21.75 31.4167H24.1667V29Z" fill="black"/>
<path d="M31.4167 29H29V31.4167H31.4167V29Z" fill="black"/>
<path d="M33.8333 29H31.4167V31.4167H33.8333V29Z" fill="black"/>
<path d="M36.25 29H33.8333V31.4167H36.25V29Z" fill="black"/>
<path d="M38.6667 29H36.25V31.4167H38.6667V29Z" fill="black"/>
<path d="M43.5 29H41.0833V31.4167H43.5V29Z" fill="black"/>
<path d="M48.3333 29H45.9167V31.4167H48.3333V29Z" fill="black"/>
<path d="M21.75 31.4167H19.3333L19.3333 33.8333H21.75L21.75 31.4167Z" fill="black"/>
<path d="M24.1667 31.4167H21.75L21.75 33.8333H24.1667V31.4167Z" fill="black"/>
<path d="M26.5833 31.4167H24.1667V33.8333H26.5833V31.4167Z" fill="black"/>
<path d="M31.4167 31.4167H29V33.8333H31.4167V31.4167Z" fill="black"/>
<path d="M38.6667 31.4167H36.25V33.8333H38.6667V31.4167Z" fill="black"/>
<path d="M48.3333 31.4167H45.9167V33.8333H48.3333V31.4167Z" fill="black"/>
<path d="M50.75 31.4167H48.3333V33.8333H50.75V31.4167Z" fill="black"/>
<path d="M2.41667 33.8333H0V36.25H2.41667V33.8333Z" fill="black"/>
<path d="M4.83333 33.8333H2.41667V36.25H4.83333V33.8333Z" fill="black"/>
<path d="M7.25 33.8333H4.83333V36.25H7.25V33.8333Z" fill="black"/>
<path d="M9.66667 33.8333H7.25V36.25H9.66667V33.8333Z" fill="black"/>
<path d="M12.0833 33.8333H9.66667V36.25H12.0833V33.8333Z" fill="black"/>
<path d="M14.5 33.8333H12.0833V36.25H14.5V33.8333Z" fill="black"/>
<path d="M16.9167 33.8333H14.5V36.25H16.9167V33.8333Z" fill="black"/>
<path d="M21.75 33.8333H19.3333V36.25H21.75V33.8333Z" fill="black"/>
<path d="M24.1667 33.8333H21.75V36.25H24.1667V33.8333Z" fill="black"/>
<path d="M26.5833 33.8333H24.1667V36.25H26.5833V33.8333Z" fill="black"/>
<path d="M36.25 33.8333H33.8333V36.25H36.25V33.8333Z" fill="black"/>
<path d="M43.5 33.8333H41.0833V36.25H43.5V33.8333Z" fill="black"/>
<path d="M45.9167 33.8333H43.5V36.25H45.9167V33.8333Z" fill="black"/>
<path d="M2.41667 36.25H0V38.6667H2.41667V36.25Z" fill="black"/>
<path d="M16.9167 36.25H14.5V38.6667H16.9167V36.25Z" fill="black"/>
<path d="M21.75 36.25H19.3333V38.6667H21.75V36.25Z" fill="black"/>
<path d="M31.4167 36.25H29V38.6667H31.4167V36.25Z" fill="black"/>
<path d="M38.6667 36.25H36.25V38.6667H38.6667V36.25Z" fill="black"/>
<path d="M41.0833 36.25H38.6667V38.6667H41.0833V36.25Z" fill="black"/>
<path d="M43.5 36.25H41.0833V38.6667H43.5V36.25Z" fill="black"/>
<path d="M2.41667 38.6667H0V41.0833H2.41667V38.6667Z" fill="black"/>
<path d="M7.25 38.6667H4.83333V41.0833H7.25V38.6667Z" fill="black"/>
<path d="M9.66667 38.6667H7.25V41.0833H9.66667V38.6667Z" fill="black"/>
<path d="M12.0833 38.6667H9.66667V41.0833H12.0833V38.6667Z" fill="black"/>
<path d="M16.9167 38.6667H14.5V41.0833H16.9167V38.6667Z" fill="black"/>
<path d="M21.75 38.6667H19.3333V41.0833H21.75V38.6667Z" fill="black"/>
<path d="M24.1667 38.6667H21.75V41.0833H24.1667V38.6667Z" fill="black"/>
<path d="M26.5833 38.6667H24.1667V41.0833H26.5833V38.6667Z" fill="black"/>
<path d="M29 38.6667H26.5833V41.0833H29V38.6667Z" fill="black"/>
<path d="M33.8333 38.6667H31.4167V41.0833H33.8333V38.6667Z" fill="black"/>
<path d="M36.25 38.6667H33.8333V41.0833H36.25V38.6667Z" fill="black"/>
<path d="M38.6667 38.6667H36.25V41.0833H38.6667V38.6667Z" fill="black"/>
<path d="M43.5 38.6667H41.0833V41.0833H43.5V38.6667Z" fill="black"/>
<path d="M45.9167 38.6667H43.5V41.0833H45.9167V38.6667Z" fill="black"/>
<path d="M48.3333 38.6667H45.9167V41.0833H48.3333V38.6667Z" fill="black"/>
<path d="M2.41667 41.0833H0V43.5H2.41667V41.0833Z" fill="black"/>
<path d="M7.25 41.0833H4.83333V43.5H7.25V41.0833Z" fill="black"/>
<path d="M9.66667 41.0833H7.25V43.5H9.66667V41.0833Z" fill="black"/>
<path d="M12.0833 41.0833H9.66667V43.5H12.0833V41.0833Z" fill="black"/>
<path d="M16.9167 41.0833H14.5V43.5H16.9167V41.0833Z" fill="black"/>
<path d="M21.75 41.0833H19.3333V43.5H21.75V41.0833Z" fill="black"/>
<path d="M24.1667 41.0833H21.75V43.5H24.1667V41.0833Z" fill="black"/>
<path d="M33.8333 41.0833H31.4167V43.5H33.8333V41.0833Z" fill="black"/>
<path d="M36.25 41.0833H33.8333V43.5H36.25V41.0833Z" fill="black"/>
<path d="M43.5 41.0833H41.0833V43.5H43.5V41.0833Z" fill="black"/>
<path d="M45.9167 41.0833H43.5V43.5H45.9167V41.0833Z" fill="black"/>
<path d="M2.41667 43.5H0V45.9167H2.41667V43.5Z" fill="black"/>
<path d="M7.25 43.5H4.83333V45.9167H7.25V43.5Z" fill="black"/>
<path d="M9.66667 43.5H7.25V45.9167H9.66667V43.5Z" fill="black"/>
<path d="M12.0833 43.5H9.66667V45.9167H12.0833V43.5Z" fill="black"/>
<path d="M16.9167 43.5H14.5V45.9167H16.9167V43.5Z" fill="black"/>
<path d="M24.1667 43.5H21.75L21.75 45.9167H24.1667V43.5Z" fill="black"/>
<path d="M33.8333 43.5H31.4167V45.9167H33.8333V43.5Z" fill="black"/>
<path d="M2.41667 45.9167H0V48.3333H2.41667V45.9167Z" fill="black"/>
<path d="M16.9167 45.9167H14.5V48.3333H16.9167V45.9167Z" fill="black"/>
<path d="M24.1667 45.9167H21.75V48.3333H24.1667V45.9167Z" fill="black"/>
<path d="M26.5833 45.9167H24.1667V48.3333H26.5833V45.9167Z" fill="black"/>
<path d="M29 45.9167H26.5833V48.3333H29V45.9167Z" fill="black"/>
<path d="M33.8333 45.9167H31.4167V48.3333H33.8333V45.9167Z" fill="black"/>
<path d="M36.25 45.9167H33.8333V48.3333H36.25V45.9167Z" fill="black"/>
<path d="M38.6667 45.9167H36.25V48.3333H38.6667V45.9167Z" fill="black"/>
<path d="M41.0833 45.9167H38.6667V48.3333H41.0833V45.9167Z" fill="black"/>
<path d="M43.5 45.9167H41.0833V48.3333H43.5V45.9167Z" fill="black"/>
<path d="M2.41667 48.3333H0V50.75H2.41667V48.3333Z" fill="black"/>
<path d="M4.83333 48.3333H2.41667V50.75H4.83333V48.3333Z" fill="black"/>
<path d="M7.25 48.3333H4.83333V50.75H7.25V48.3333Z" fill="black"/>
<path d="M9.66667 48.3333H7.25V50.75H9.66667V48.3333Z" fill="black"/>
<path d="M12.0833 48.3333H9.66667V50.75H12.0833V48.3333Z" fill="black"/>
<path d="M14.5 48.3333H12.0833V50.75H14.5V48.3333Z" fill="black"/>
<path d="M16.9167 48.3333H14.5V50.75H16.9167V48.3333Z" fill="black"/>
<path d="M21.75 48.3333H19.3333V50.75H21.75L21.75 48.3333Z" fill="black"/>
<path d="M38.6667 48.3333H36.25V50.75H38.6667V48.3333Z" fill="black"/>
<path d="M43.5 48.3333H41.0833V50.75H43.5V48.3333Z" fill="black"/>
<path d="M50.75 48.3333H48.3333V50.75H50.75V48.3333Z" fill="black"/>
</svg>
