<svg width="18" height="18" viewBox="0 0 18 18" fill="none" xmlns="http://www.w3.org/2000/svg">
<path d="M5.66663 11.5001H7.33329V9.00008H10.25V11.0834L13.1666 8.16675L10.25 5.25008V7.33341H6.49996C6.26385 7.33341 6.06607 7.41314 5.90663 7.57258C5.74663 7.73258 5.66663 7.93064 5.66663 8.16675V11.5001ZM8.99996 17.3334C8.79163 17.3334 8.58663 17.2917 8.38496 17.2084C8.18385 17.1251 7.99996 17.0001 7.83329 16.8334L1.16663 10.1667C0.999959 10.0001 0.874959 9.81619 0.791626 9.61508C0.708293 9.41341 0.666626 9.20841 0.666626 9.00008C0.666626 8.79175 0.708293 8.58675 0.791626 8.38508C0.874959 8.18397 0.999959 8.00008 1.16663 7.83342L7.83329 1.16675C7.99996 1.00008 8.18385 0.875081 8.38496 0.791748C8.58663 0.708415 8.79163 0.666748 8.99996 0.666748C9.20829 0.666748 9.41329 0.708415 9.61496 0.791748C9.81607 0.875081 9.99996 1.00008 10.1666 1.16675L16.8333 7.83342C17 8.00008 17.125 8.18397 17.2083 8.38508C17.2916 8.58675 17.3333 8.79175 17.3333 9.00008C17.3333 9.20841 17.2916 9.41341 17.2083 9.61508C17.125 9.81619 17 10.0001 16.8333 10.1667L10.1666 16.8334C9.99996 17.0001 9.81607 17.1251 9.61496 17.2084C9.41329 17.2917 9.20829 17.3334 8.99996 17.3334Z" fill="#1943EF"/>
</svg>
