<svg width="28" height="28" viewBox="0 0 28 28" fill="none" xmlns="http://www.w3.org/2000/svg">
<path d="M0.666626 7.33342V0.666748H7.33329V3.33341H3.33329V7.33342H0.666626ZM0.666626 27.3334V20.6667H3.33329V24.6667H7.33329V27.3334H0.666626ZM20.6666 27.3334V24.6667H24.6666V20.6667H27.3333V27.3334H20.6666ZM24.6666 7.33342V3.33341H20.6666V0.666748H27.3333V7.33342H24.6666ZM21.3333 21.3334H23.3333V23.3334H21.3333V21.3334ZM21.3333 17.3334H23.3333V19.3334H21.3333V17.3334ZM19.3333 19.3334H21.3333V21.3334H19.3333V19.3334ZM17.3333 21.3334H19.3333V23.3334H17.3333V21.3334ZM15.3333 19.3334H17.3333V21.3334H15.3333V19.3334ZM19.3333 15.3334H21.3333V17.3334H19.3333V15.3334ZM17.3333 17.3334H19.3333V19.3334H17.3333V17.3334ZM15.3333 15.3334H17.3333V17.3334H15.3333V15.3334ZM23.3333 4.66675V12.6667H15.3333V4.66675H23.3333ZM12.6666 15.3334V23.3334H4.66663V15.3334H12.6666ZM12.6666 4.66675V12.6667H4.66663V4.66675H12.6666ZM10.6666 21.3334V17.3334H6.66663V21.3334H10.6666ZM10.6666 10.6667V6.66675H6.66663V10.6667H10.6666ZM21.3333 10.6667V6.66675H17.3333V10.6667H21.3333Z" fill="white"/>
</svg>
